<svg width="48" height="48" viewBox="0 0 48 48" fill="none" xmlns="http://www.w3.org/2000/svg">
<path d="M19.125 20.7188H41.625C41.8313 20.7188 42 20.55 42 20.3438V17.7188C42 17.5125 41.8313 17.3438 41.625 17.3438H19.125C18.9187 17.3438 18.75 17.5125 18.75 17.7188V20.3438C18.75 20.55 18.9187 20.7188 19.125 20.7188ZM18.75 30.2812C18.75 30.4875 18.9187 30.6562 19.125 30.6562H41.625C41.8313 30.6562 42 30.4875 42 30.2812V27.6562C42 27.45 41.8313 27.2812 41.625 27.2812H19.125C18.9187 27.2812 18.75 27.45 18.75 27.6562V30.2812ZM42.375 7.5H5.625C5.41875 7.5 5.25 7.66875 5.25 7.875V10.5C5.25 10.7063 5.41875 10.875 5.625 10.875H42.375C42.5813 10.875 42.75 10.7063 42.75 10.5V7.875C42.75 7.66875 42.5813 7.5 42.375 7.5ZM42.375 37.125H5.625C5.41875 37.125 5.25 37.2937 5.25 37.5V40.125C5.25 40.3313 5.41875 40.5 5.625 40.5H42.375C42.5813 40.5 42.75 40.3313 42.75 40.125V37.5C42.75 37.2937 42.5813 37.125 42.375 37.125ZM6.675 30.0984L14.0016 24.3281C14.0509 24.2894 14.0908 24.2399 14.1182 24.1834C14.1456 24.127 14.1599 24.0651 14.1599 24.0023C14.1599 23.9396 14.1456 23.8777 14.1182 23.8212C14.0908 23.7648 14.0509 23.7153 14.0016 23.6766L6.675 17.9016C6.40312 17.6859 6 17.8781 6 18.225V29.7703C5.99997 29.8486 6.02198 29.9253 6.0635 29.9917C6.10502 30.0581 6.16438 30.1114 6.2348 30.1457C6.30521 30.1799 6.38383 30.1936 6.46168 30.1853C6.53952 30.1769 6.61345 30.1468 6.675 30.0984V30.0984Z" fill="#09460C"/>
</svg>
